<svg xmlns="http://www.w3.org/2000/svg" viewBox="0 0 661 1024">
<!-- SVG created with Arrow, by QuiverAI (https://quiver.ai) -->
  <rect id="black-background" width="661" height="1024" fill="#000"/>
  <g id="red-telephone" fill="none" stroke="#f00" stroke-linecap="round" stroke-linejoin="round">
    <path id="coiled-telephone-cord" d="m359 652c23 19 38 44 42 76 6 40-2 83-22 120-15 28-37 43-64 45-31 4-56-5-73-24-18-19-22-44-16-70 7-31 26-58 52-73 31-19 72-24 111-14" stroke-width="32"/>
    <path id="cord-terminal-curl" d="m369 865c22 41 53 69 93 78 30 8 57 5 79-9 21-13 32-34 30-57-1-25-16-42-38-44-22-4-40 6-48 23-6 14-4 28 6 35 9 6 22 5 29-2 3-3 5-7 5-10" stroke-width="32"/>
    <path id="telephone-handset" d="m365 654c-45-24-90-55-129-92-44-42-79-88-106-136-28-52-46-106-51-160-4-34-3-63 2-85 6-24 19-44 38-59 18-14 46-28 66-38 18-9 29-8 37-4 13 4 22 15 29 32l36 89c7 19 3 34-9 46-12 11-35 22-56 36-15 9-24 17-19 37 7 31 27 68 48 99 27 39 61 73 93 97 17 12 31 18 42 11 15-8 33-34 49-48 15-14 29-13 43-6 13 7 32 23 52 38l35 29c17 14 22 31 14 50s-28 43-46 61c-20 20-43 28-69 29-31 2-64-8-99-26z" stroke-width="36"/>
  </g>
</svg>
